<?xml version="1.0" encoding="UTF-8"?>
<svg width="320px" height="220px" viewBox="0 0 320 220" version="1.1" xmlns="http://www.w3.org/2000/svg" xmlns:xlink="http://www.w3.org/1999/xlink">
    <!-- Generator: Sketch 47.1 (45422) - http://www.bohemiancoding.com/sketch -->
    <title>assembly-bg</title>
    <desc>Created with Sketch.</desc>
    <defs></defs>
    <g id="PartySelector" stroke="none" stroke-width="1" fill="none" fill-rule="evenodd" fill-opacity="0.276041667">
        <g id="assembly-bg" fill="#000000">
            <g id="Group-5" transform="translate(4.000000, 2.000000)">
                <path d="M12.1180507,216.387306 C4.31318553,197.813273 2.84217094e-14,177.410336 2.84217094e-14,156 C2.84217094e-14,69.843579 69.843579,0 156,0 C242.156421,0 312,69.843579 312,156 C312,177.410336 307.686814,197.813273 299.881949,216.387306 L231.974604,189.076743 C236.492268,178.802073 239,167.443893 239,155.5 C239,109.384223 201.615777,72 155.5,72 C109.384223,72 72,109.384223 72,155.5 C72,167.576347 74.5636605,179.05392 79.1764364,189.418172 L12.1180507,216.387306 Z" id="Combined-Shape" opacity="0.485450634"></path>
                <path d="M27.8964927,210.041628 C20.879641,193.428844 17,175.167491 17,156 C17,79.2324198 79.2324198,17 156,17 C232.76758,17 295,79.2324198 295,156 C295,175.167491 291.120359,193.428844 284.103507,210.041628 L231.974604,189.076743 C236.492268,178.802073 239,167.443893 239,155.5 C239,109.384223 201.615777,72 155.5,72 C109.384223,72 72,109.384223 72,155.5 C72,167.576347 74.5636605,179.05392 79.1764364,189.418172 L27.8964927,210.041628 Z" id="Combined-Shape" opacity="0.68993433"></path>
                <path d="M45.8517465,202.820493 C39.8299325,188.583444 36.5,172.930596 36.5,156.5 C36.5,90.7781148 89.7781148,37.5 155.5,37.5 C221.221885,37.5 274.5,90.7781148 274.5,156.5 C274.5,172.798396 271.223437,188.331509 265.293084,202.476566 L231.974604,189.076743 C236.492268,178.802073 239,167.443893 239,155.5 C239,109.384223 201.615777,72 155.5,72 C109.384223,72 72,109.384223 72,155.5 C72,167.576347 74.5636605,179.05392 79.1764364,189.418172 L45.8517465,202.820493 Z" id="Combined-Shape" opacity="0.68993433"></path>
                <path d="M64.3415328,195.384384 C59.2919673,183.431267 56.5,170.291683 56.5,156.5 C56.5,101.271525 101.271525,56.5 156.5,56.5 C211.728475,56.5 256.5,101.271525 256.5,156.5 C256.5,170.423924 253.654235,183.683183 248.512593,195.727891 L231.974604,189.076743 C236.492268,178.802073 239,167.443893 239,155.5 C239,109.384223 201.615777,72 155.5,72 C109.384223,72 72,109.384223 72,155.5 C72,167.576347 74.5636605,179.05392 79.1764364,189.418172 L64.3415328,195.384384 Z" id="Combined-Shape" opacity="0.68993433"></path>
            </g>
        </g>
    </g>
</svg>