<?xml version="1.0" encoding="UTF-8"?>
<svg width="184px" height="74px" viewBox="0 0 184 74" version="1.1" xmlns="http://www.w3.org/2000/svg" xmlns:xlink="http://www.w3.org/1999/xlink">
    <!-- Generator: Sketch 46.2 (44496) - http://www.bohemiancoding.com/sketch -->
    <title>ps-logo-splash</title>
    <desc>Created with Sketch.</desc>
    <defs></defs>
    <g id="Screens" stroke="none" stroke-width="1" fill="none" fill-rule="evenodd">
        <g id="ps-logo-splash" fill="#FFFFFF">
            <g id="Group" transform="translate(-22.000000, 2.000000)">
                <path d="M46.4884286,10.272 C46.2283975,9.48259015 45.8182668,8.79260953 45.1722196,8.24595429 C43.5065473,6.83653924 40.3642175,6.508032 37.2159138,6.508032 L28.2652578,6.508032 L28.2652578,16.512 L46.8921462,16.512 C46.9290248,15.8900307 46.9353378,15.2416619 46.9353378,14.580096 C46.9353378,14.0483958 46.9311427,13.5253238 46.9096147,13.0176001 L36.192,13.0176001 C35.5027486,13.0176001 34.944,12.4588514 34.944,11.7696001 L34.944,11.52 C34.944,10.8307486 35.5027486,10.272 36.192,10.272 L46.4884286,10.272 Z M28.2652578,19.2576001 L28.2652578,22.65216 L37.2159138,22.65216 C40.3642175,22.65216 43.5065473,22.3569739 45.1722196,20.965863 C45.7308254,20.4993351 46.1130547,19.9198478 46.3743824,19.2576001 L28.2652578,19.2576001 Z M46.9921325,6.55711753 C49.2069275,8.44243895 49.8456738,11.2853595 49.8456738,14.580096 C49.8456738,17.8748325 48.9560792,21.0964416 46.7412842,23.0000671 C44.5264891,24.9036926 41.3160286,25.233024 37.5453858,25.233024 L28.2652578,25.233024 L28.2652578,40.224 L25.5196578,40.224 L25.5196578,3.98208 L37.5453858,3.98208 C41.3160286,3.98208 44.7773374,4.6717961 46.9921325,6.55711753 Z M77.8843513,16.035264 C80.208971,18.5795327 81.3712633,22.0664099 81.3712633,26.496 C81.3712633,30.9255901 80.208971,34.4124673 77.8843513,36.956736 C75.5597317,39.5010047 72.3657156,40.77312 68.3022073,40.77312 C64.238699,40.77312 61.044683,39.5010047 58.7200633,36.956736 C56.3954437,34.4124673 55.2331513,30.9255901 55.2331513,26.496 C55.2331513,22.0664099 56.3954437,18.5795327 58.7200633,16.035264 C61.044683,13.4909953 64.238699,12.21888 68.3022073,12.21888 C72.3657156,12.21888 75.5597317,13.4909953 77.8843513,16.035264 Z M60.7243513,17.764992 C58.8939422,19.8882666 57.9787513,22.7985735 57.9787513,26.496 C57.9787513,30.1934265 58.8939422,33.1037334 60.7243513,35.227008 C62.5547605,37.3502826 65.0806872,38.411904 68.3022073,38.411904 C71.5237274,38.411904 74.0496542,37.3502826 75.8800633,35.227008 C77.7104725,33.1037334 78.6256633,30.1934265 78.6256633,26.496 C78.6256633,22.7985735 77.7104725,19.8882666 75.8800633,17.764992 C74.0496542,15.6417174 71.5237274,14.580096 68.3022073,14.580096 C65.0806872,14.580096 62.5547605,15.6417174 60.7243513,17.764992 Z M92.5245009,33.579648 C92.5245009,35.2636244 92.7899062,36.4533725 93.3207249,37.148928 C93.8515435,37.8444835 94.7392787,38.192256 95.9839569,38.192256 C96.7161205,38.192256 97.3384503,38.1373445 97.8509649,38.02752 C98.3634794,37.9176955 98.9492016,37.7163535 99.6081489,37.423488 L99.2237649,40.059264 C98.1987358,40.5351704 96.9906838,40.77312 95.5995729,40.77312 C93.622731,40.77312 92.1584256,40.2148536 91.2066129,39.098304 C90.2548001,37.9817544 89.7789009,36.2337399 89.7789009,33.854208 L89.7789009,0.13824 L92.5245009,0.13824 L92.5245009,33.579648 Z M105.352554,6.810048 C104.93156,6.3890539 104.721066,5.83078748 104.721066,5.135232 C104.721066,4.43967652 104.93156,3.8814101 105.352554,3.460416 C105.773549,3.0394219 106.331815,2.828928 107.02737,2.828928 C107.722926,2.828928 108.281192,3.0394219 108.702186,3.460416 C109.123181,3.8814101 109.333674,4.43967652 109.333674,5.135232 C109.333674,5.83078748 109.123181,6.3890539 108.702186,6.810048 C108.281192,7.2310421 107.722926,7.441536 107.02737,7.441536 C106.331815,7.441536 105.773549,7.2310421 105.352554,6.810048 Z M108.40017,40.224 L105.65457,40.224 L105.65457,12.768 L108.40017,12.768 L108.40017,40.224 Z M133.995264,38.466816 C133.2631,39.1989797 132.366213,39.766398 131.304576,40.169088 C130.242939,40.571778 129.071494,40.77312 127.790208,40.77312 C125.557109,40.77312 123.809094,40.1599421 122.546112,38.933568 C121.28313,37.7071939 120.651648,35.8493564 120.651648,33.36 L120.651648,15.129216 L115.160448,15.129216 L115.160448,12.768 L120.651648,12.768 L120.651648,5.904 L123.397248,5.135232 L123.397248,12.768 L133.720704,12.768 L133.720704,15.129216 L123.397248,15.129216 L123.397248,32.975616 C123.397248,34.6962006 123.809084,36.0049235 124.632768,36.901824 C125.456452,37.7987245 126.655352,38.247168 128.229504,38.247168 C130.059913,38.247168 131.652345,37.5699268 133.006848,36.215424 L133.995264,38.466816 Z M139.849494,6.810048 C139.428499,6.3890539 139.218006,5.83078748 139.218006,5.135232 C139.218006,4.43967652 139.428499,3.8814101 139.849494,3.460416 C140.270488,3.0394219 140.828754,2.828928 141.52431,2.828928 C142.219865,2.828928 142.778131,3.0394219 143.199126,3.460416 C143.62012,3.8814101 143.830614,4.43967652 143.830614,5.135232 C143.830614,5.83078748 143.62012,6.3890539 143.199126,6.810048 C142.778131,7.2310421 142.219865,7.441536 141.52431,7.441536 C140.828754,7.441536 140.270488,7.2310421 139.849494,6.810048 Z M142.89711,40.224 L140.15151,40.224 L140.15151,12.768 L142.89711,12.768 L142.89711,40.224 Z M171.539819,14.168256 C173.461749,15.4678465 174.843687,17.2890763 175.685675,19.632 L173.104811,20.840064 C172.482472,18.8266139 171.439154,17.2890933 169.974827,16.227456 C168.5105,15.1658187 166.680118,14.635008 164.483627,14.635008 C161.298715,14.635008 158.809396,15.6874775 157.015595,17.792448 C155.221794,19.8974185 154.324907,22.7985735 154.324907,26.496 C154.324907,30.2300347 155.212642,33.1403416 156.988139,35.227008 C158.763636,37.3136744 161.243803,38.356992 164.428715,38.356992 C166.771639,38.356992 168.757603,37.7804218 170.386667,36.627264 C172.015731,35.4741062 173.013289,33.8725223 173.379371,31.822464 L175.905323,32.701056 C175.173159,35.1904124 173.791221,37.1580728 171.759467,38.604096 C169.727713,40.0501192 167.302457,40.77312 164.483627,40.77312 C160.420119,40.77312 157.253558,39.5101566 154.983851,36.984192 C152.714144,34.4582274 151.579307,30.9621983 151.579307,26.496 C151.579307,22.0298017 152.723296,18.5337726 155.011307,16.007808 C157.299319,13.4818434 160.475031,12.21888 164.538539,12.21888 C167.284153,12.21888 169.61789,12.8686655 171.539819,14.168256 Z M192.084827,40.7622825 C189.813776,40.700543 187.792512,40.2342402 186.020991,39.3633656 C183.933853,38.3373352 182.469743,36.7950603 181.628615,34.7364948 L183.826893,33.1762015 C184.439562,34.9863315 185.603324,36.3193151 187.318215,37.1751922 C189.033106,38.0310693 191.116147,38.4162023 193.567401,38.3306026 C196.055241,38.2437253 197.986801,37.7000844 199.36214,36.6996636 C200.737479,35.6992428 201.397669,34.4124552 201.342732,32.8392623 C201.295461,31.4855846 200.654114,30.4273975 199.418673,29.6646691 C198.183231,28.9019407 196.037646,28.2992122 192.981854,27.8564653 C189.116062,27.2954823 186.376169,26.4570978 184.762092,25.3412867 C183.148016,24.2254756 182.303301,22.588311 182.227922,20.429744 C182.178095,19.0028946 182.571126,17.6704915 183.407026,16.4324948 C184.242927,15.1944981 185.453611,14.1998415 187.039115,13.448495 C188.013745,12.9866327 189.075899,12.6532114 190.225591,12.4482284 L190.065322,9.39010698 C190.029249,8.7018002 190.557989,8.11457467 191.246296,8.07850204 L191.246296,8.07850204 L191.495554,8.06543899 L191.495554,8.06543899 C192.183861,8.02936636 192.771086,8.5581066 192.807159,9.24641337 L192.96209,12.2026758 C195.635641,12.166393 197.811653,12.6381952 199.490187,13.6180942 C201.266344,14.6549843 202.523283,16.2960686 203.261041,18.5413964 L200.949173,19.9957654 C199.793175,16.2631925 197.001772,14.4742281 192.57488,14.6288186 C191.111445,14.6799229 189.793531,14.9640401 188.621098,15.4811788 C187.448666,15.9983175 186.537778,16.661993 185.888408,17.4722252 C185.239038,18.2824574 184.930327,19.1448841 184.962268,20.0595312 C185.014649,21.5595523 185.677483,22.708564 186.950788,23.5066007 C188.224093,24.3046373 190.443487,24.9231034 193.609037,25.3620174 C197.362516,25.8536615 200.027961,26.6580158 201.605452,27.7751045 C203.182942,28.8921933 204.008726,30.5117039 204.082827,32.6336851 C204.164594,34.9751816 203.23312,36.8849942 201.288377,38.3631802 C199.643449,39.613479 197.490178,40.3770431 194.828514,40.6538871 L195.003111,43.985405 C195.039184,44.6737118 194.510444,45.2609373 193.822137,45.29701 L193.572879,45.310073 C192.884572,45.3461456 192.297347,44.8174054 192.261274,44.1290986 L192.084827,40.7622825 Z M31.2,12.768 C30.5107486,12.768 29.952,12.2092514 29.952,11.52 C29.952,10.8307486 30.5107486,10.272 31.2,10.272 C31.8892514,10.272 32.448,10.8307486 32.448,11.52 C32.448,12.2092514 31.8892514,12.768 31.2,12.768 Z" id="Politics"></path>
                <path d="M63.1812475,67.048416 C62.3126352,66.6215979 61.6761616,65.9888682 61.2718075,65.150208 L62.7319675,64.139328 C62.9865608,64.7982753 63.4283484,65.2924784 64.0573435,65.621952 C64.6863387,65.9514256 65.4276433,66.11616 66.2812795,66.11616 C67.164868,66.11616 67.8387812,65.9589136 68.3030395,65.644416 C68.7672979,65.3299184 68.9994235,64.9330584 68.9994235,64.453824 C68.9994235,64.0195178 68.7822737,63.6713293 68.3479675,63.409248 C67.9136614,63.1471667 67.149893,62.918785 66.0566395,62.724096 C64.9783622,62.529407 64.1247387,62.2935374 63.4957435,62.01648 C62.8667484,61.7394226 62.409985,61.3874901 62.1254395,60.960672 C61.8408941,60.5338539 61.6986235,60.0059551 61.6986235,59.37696 C61.6986235,58.7629409 61.8783338,58.2013465 62.2377595,57.69216 C62.5971853,57.1829735 63.1138522,56.7748815 63.7877755,56.467872 C64.4616989,56.1608625 65.2404431,56.00736 66.1240315,56.00736 C67.3221175,56.00736 68.2843159,56.2282538 69.0106555,56.670048 C69.7369952,57.1118422 70.257406,57.7894994 70.5719035,58.70304 L69.0443515,59.6016 C68.8047343,58.8827484 68.44157,58.3660816 67.9548475,58.051584 C67.4681251,57.7370864 66.8578592,57.57984 66.1240315,57.57984 C65.3902039,57.57984 64.7687061,57.7445744 64.2595195,58.074048 C63.750333,58.4035216 63.4957435,58.7854058 63.4957435,59.219712 C63.4957435,59.7139225 63.7166373,60.0958067 64.1584315,60.365376 C64.6002258,60.6349453 65.3902019,60.867071 66.5283835,61.06176 C68.0858953,61.3163533 69.1866203,61.6982375 69.8305915,62.207424 C70.4745628,62.7166105 70.7965435,63.4354514 70.7965435,64.363968 C70.7965435,65.0079392 70.6056015,65.5807655 70.2237115,66.082464 C69.8418216,66.5841625 69.2952031,66.9772786 68.5838395,67.261824 C67.872476,67.5463694 67.0450603,67.68864 66.1015675,67.68864 C65.0232902,67.68864 64.0498599,67.4752341 63.1812475,67.048416 Z M74.2921916,53.7048 C74.0450864,53.4576948 73.9215356,53.13197 73.9215356,52.727616 C73.9215356,52.323262 74.0450864,51.9975372 74.2921916,51.750432 C74.5392969,51.5033268 74.8650216,51.379776 75.2693756,51.379776 C75.6737297,51.379776 75.9994544,51.5033268 76.2465596,51.750432 C76.4936649,51.9975372 76.6172156,52.323262 76.6172156,52.727616 C76.6172156,53.13197 76.4936649,53.4576948 76.2465596,53.7048 C75.9994544,53.9519052 75.6737297,54.075456 75.2693756,54.075456 C74.8650216,54.075456 74.5392969,53.9519052 74.2921916,53.7048 Z M76.1679356,67.464 L74.3708156,67.464 L74.3708156,56.232 L76.1679356,56.232 L76.1679356,67.464 Z M95.7478077,56.467872 C96.399267,56.7748815 96.9271657,57.2503648 97.3315197,57.894336 C97.7358738,58.5383072 97.9380477,59.3320273 97.9380477,60.27552 L97.9380477,67.464 L96.1409277,67.464 L96.1409277,60.455232 C96.1409277,59.4817871 95.8975702,58.7592024 95.4108477,58.287456 C94.9241253,57.8157096 94.2839077,57.57984 93.4901757,57.57984 C92.8911328,57.57984 92.3407703,57.7258545 91.8390717,58.017888 C91.3373732,58.3099215 90.9330253,58.7367332 90.6260157,59.298336 C90.3190062,59.8599388 90.1655037,60.5301081 90.1655037,61.308864 L90.1655037,67.464 L88.3683837,67.464 L88.3683837,60.455232 C88.3683837,59.4817871 88.1250262,58.7592024 87.6383037,58.287456 C87.1515813,57.8157096 86.5113637,57.57984 85.7176317,57.57984 C85.1784931,57.57984 84.6543383,57.7183666 84.1451517,57.995424 C83.6359652,58.2724814 83.2166414,58.7030371 82.8871677,59.287104 C82.5576941,59.8711709 82.3929597,60.5974997 82.3929597,61.466112 L82.3929597,67.464 L80.5958397,67.464 L80.5958397,56.232 L82.1683197,56.232 L82.2806397,57.984192 C82.6700177,57.3252447 83.1829406,56.8310416 83.8194237,56.501568 C84.4559069,56.1720944 85.1410521,56.00736 85.8748797,56.00736 C86.6985639,56.00736 87.4585883,56.1945581 88.1549757,56.56896 C88.8513632,56.9433619 89.379262,57.4899804 89.7386877,58.208832 C90.0681614,57.4899804 90.607292,56.9433619 91.3560957,56.56896 C92.1048995,56.1945581 92.8686679,56.00736 93.6474237,56.00736 C94.3962275,56.00736 95.0963485,56.1608625 95.7478077,56.467872 Z M111.980544,56.232 L111.980544,67.464 L110.408064,67.464 L110.295744,65.756736 C109.54694,67.0446784 108.206602,67.68864 106.274688,67.68864 C105.061626,67.68864 104.069476,67.3516834 103.298208,66.67776 C102.52694,66.0038366 102.141312,64.970503 102.141312,63.577728 L102.141312,56.232 L103.938432,56.232 L103.938432,63.105984 C103.938432,64.1992375 104.16307,64.9742377 104.612352,65.431008 C105.061634,65.8877783 105.720572,66.11616 106.589184,66.11616 C107.622533,66.11616 108.4799,65.8016671 109.161312,65.172672 C109.842723,64.5436769 110.183424,63.6001983 110.183424,62.342208 L110.183424,56.232 L111.980544,56.232 Z M118.115712,64.453824 C118.115712,65.0229148 118.201823,65.4160309 118.374048,65.633184 C118.546273,65.8503371 118.86451,65.958912 119.328768,65.958912 C119.643266,65.958912 119.916575,65.9364482 120.148704,65.89152 C120.380833,65.8465918 120.654142,65.7642246 120.96864,65.644416 L120.676608,67.374144 C120.182397,67.583809 119.628291,67.68864 119.014272,67.68864 C118.100731,67.68864 117.423074,67.4415385 116.98128,66.947328 C116.539486,66.4531175 116.318592,65.6968371 116.318592,64.678464 L116.318592,51.06528 L118.115712,51.06528 L118.115712,64.453824 Z M133.640832,66.048768 L133.528512,67.464 C133.109182,67.6137607 132.659906,67.68864 132.180672,67.68864 C131.596605,67.68864 131.136098,67.5613453 130.799136,67.306752 C130.462174,67.0521587 130.248768,66.625347 130.158912,66.026304 C129.814462,66.5504666 129.309027,66.9585585 128.642592,67.250592 C127.976157,67.5426255 127.276036,67.68864 126.542208,67.68864 C125.433979,67.68864 124.520452,67.4303066 123.8016,66.913632 C123.082748,66.3969574 122.723328,65.6519089 122.723328,64.678464 C122.723328,63.8248277 123.097724,63.0872671 123.846528,62.46576 C124.595332,61.8442529 125.681081,61.4136972 127.103808,61.17408 L130.09152,60.679872 L130.09152,60.05088 C130.09152,59.3020763 129.859394,58.7030422 129.395136,58.25376 C128.930878,57.8044778 128.286916,57.57984 127.463232,57.57984 C126.714428,57.57984 126.066723,57.7595502 125.520096,58.118976 C124.973469,58.4784018 124.550402,59.0100445 124.25088,59.71392 L122.925504,58.747968 C123.225026,57.9093078 123.782876,57.2428825 124.599072,56.748672 C125.415268,56.2544615 126.369979,56.00736 127.463232,56.00736 C128.796103,56.00736 129.866876,56.3293408 130.675584,56.973312 C131.484292,57.6172832 131.88864,58.5682497 131.88864,59.82624 L131.88864,65.352384 C131.88864,65.6219533 131.956031,65.8241273 132.090816,65.958912 C132.225601,66.0936967 132.442751,66.161088 132.742272,66.161088 C133.041794,66.161088 133.341311,66.1236484 133.640832,66.048768 Z M129.069408,65.44224 C129.750819,64.9929578 130.09152,64.4088996 130.09152,63.690048 L130.09152,62.140032 L127.575552,62.611776 C126.572155,62.7914889 125.823363,63.0498223 125.329152,63.386784 C124.834942,63.7237457 124.58784,64.1543014 124.58784,64.678464 C124.58784,65.1427223 124.76755,65.4983988 125.126976,65.745504 C125.486402,65.9926092 125.988093,66.11616 126.632064,66.11616 C127.575557,66.11616 128.387997,65.8915222 129.069408,65.44224 Z M142.92096,66.67776 C142.172156,67.3516834 141.206214,67.68864 140.023104,67.68864 C139.109564,67.68864 138.364515,67.4415385 137.787936,66.947328 C137.211357,66.4531175 136.915584,65.6968371 136.900608,64.678464 L136.900608,57.782016 L134.654208,57.782016 L134.654208,56.232 L136.900608,56.232 L136.900608,53.53632 L138.697728,53.042112 L138.697728,56.232 L142.853568,56.232 L142.853568,57.782016 L138.697728,57.782016 L138.697728,64.363968 C138.697728,64.9031067 138.851231,65.3111986 139.15824,65.588256 C139.46525,65.8653134 139.873342,66.00384 140.382528,66.00384 C141.10138,66.00384 141.737853,65.7267868 142.291968,65.172672 L142.92096,66.67776 Z M154.436256,57.557376 C155.402213,58.5907252 155.885184,60.0209189 155.885184,61.848 C155.885184,63.6750811 155.402213,65.1052748 154.436256,66.138624 C153.470299,67.1719732 152.141193,67.68864 150.448896,67.68864 C148.7566,67.68864 147.427493,67.1719732 146.461536,66.138624 C145.495579,65.1052748 145.012608,63.6750811 145.012608,61.848 C145.012608,60.0209189 145.495579,58.5907252 146.461536,57.557376 C147.427493,56.5240268 148.7566,56.00736 150.448896,56.00736 C152.141193,56.00736 153.470299,56.5240268 154.436256,57.557376 Z M147.77568,58.70304 C147.131709,59.4668198 146.809728,60.5151293 146.809728,61.848 C146.809728,63.1808707 147.131709,64.2291802 147.77568,64.99296 C148.419651,65.7567398 149.310715,66.138624 150.448896,66.138624 C151.587078,66.138624 152.478141,65.7567398 153.122112,64.99296 C153.766083,64.2291802 154.088064,63.1808707 154.088064,61.848 C154.088064,60.5151293 153.766083,59.4668198 153.122112,58.70304 C152.478141,57.9392602 151.587078,57.557376 150.448896,57.557376 C149.310715,57.557376 148.419651,57.9392602 147.77568,58.70304 Z M166.153728,56.232 L165.794304,57.984192 C165.434879,57.789503 164.963139,57.69216 164.379072,57.69216 C163.899838,57.69216 163.431843,57.8306866 162.975072,58.107744 C162.518302,58.3848014 162.143906,58.8041252 161.851872,59.365728 C161.559839,59.9273308 161.413824,60.604988 161.413824,61.39872 L161.413824,67.464 L159.616704,67.464 L159.616704,56.232 L161.076864,56.232 L161.323968,58.074048 C161.952963,56.6962491 163.151032,56.00736 164.918208,56.00736 C165.457347,56.00736 165.869183,56.0822393 166.153728,56.232 Z" id="simulator"></path>
            </g>
        </g>
    </g>
</svg>